<svg width="28" height="28" xmlns="http://www.w3.org/2000/svg">

 <g>
  <title>background</title>
  <rect fill="none" id="canvas_background" height="30" width="30" y="-1" x="-1"/>
 </g>
 <g>
  <title>Layer 1</title>
  <g id="ubuntu">
   <g id="svg_1">
    <g id="svg_2">
     <path id="svg_3" d="m10.837968,13.776124c0,-1.54774 0.726587,-2.92559 1.855039,-3.812647l-1.727173,-2.764468c-1.447487,1.03961 -2.536674,2.544308 -3.050532,4.295846c0.804425,0.517756 1.337894,1.422434 1.337894,2.450634c0,0.991736 -0.493067,1.866082 -1.249943,2.392365c0.55247,1.659119 1.629071,3.079401 3.033437,4.065088l1.606292,-2.856886c-1.100597,-0.886732 -1.805014,-2.24619 -1.805014,-3.769933z" fill="#ffffff"/>
    </g>
   </g>
   <g id="svg_4">
    <path id="svg_5" d="m8.436791,13.945447c0,1.156592 -0.939275,2.09489 -2.095583,2.09489c-1.156877,0 -2.095461,-0.938255 -2.095461,-2.09489c0,-1.156023 0.938584,-2.094283 2.095461,-2.094283c1.156308,0 2.095583,0.93826 2.095583,2.094283z" fill="#ffffff"/>
   </g>
   <g id="svg_6">
    <g id="svg_7">
     <path id="svg_8" d="m20.203712,19.011244c0.487339,0 0.946136,0.119219 1.349304,0.330891c1.255665,-1.323355 2.067036,-3.069532 2.201237,-5.003671l-3.25441,-0.062979c-0.250572,2.440806 -2.312618,4.34234 -4.818877,4.34234c-0.693696,0 -1.35572,-0.145933 -1.953141,-0.409826l-1.617743,2.83033c1.078468,0.530664 2.289146,0.828789 3.570843,0.828789c0.553121,0 1.095565,-0.055996 1.61827,-0.162663c0.111504,-1.50531 1.36908,-2.693211 2.904518,-2.693211z" fill="#ffffff"/>
    </g>
   </g>
   <g id="svg_9">
    <path id="svg_10" d="m22.297997,21.923477c0,1.156349 -0.937325,2.09424 -2.09428,2.09424c-1.156963,0 -2.094975,-0.937891 -2.094975,-2.09424c0,-1.157244 0.938011,-2.094894 2.094975,-2.094894c1.156952,0 2.09428,0.937651 2.09428,2.094894z" fill="#ffffff"/>
   </g>
   <g id="svg_11">
    <g id="svg_12">
     <path id="svg_13" d="m21.775818,8.455003c-0.474144,0.335762 -1.054432,0.534483 -1.681004,0.534483c-1.609463,0 -2.912601,-1.303501 -2.912601,-2.911986c0,-0.085433 0.003819,-0.168065 0.010151,-0.25098c-0.489288,-0.093676 -0.994942,-0.141751 -1.511397,-0.141751c-1.293635,0 -2.517023,0.304456 -3.601217,0.843651l1.608242,2.832198c0.608223,-0.274003 1.282834,-0.42814 1.992975,-0.42814c2.484092,0 4.531558,1.870833 4.811324,4.280335l3.254368,-0.09936c-0.143696,-1.776794 -0.863297,-3.390761 -1.97084,-4.658449z" fill="#ffffff"/>
    </g>
   </g>
   <g id="svg_14">
    <path id="svg_15" d="m22.188484,6.077539c0,1.156918 -0.935459,2.094893 -2.093636,2.094893c-1.156876,0 -2.094891,-0.937976 -2.094891,-2.094893c-0.000042,-1.156999 0.937977,-2.095259 2.094856,-2.095259c1.158173,0 2.09367,0.93826 2.09367,2.095259z" fill="#ffffff"/>
   </g>
  </g>
  <g id="svg_16"/>
  <g id="svg_17"/>
  <g id="svg_18"/>
  <g id="svg_19"/>
  <g id="svg_20"/>
  <g id="svg_21"/>
  <g id="svg_22"/>
  <g id="svg_23"/>
  <g id="svg_24"/>
  <g id="svg_25"/>
  <g id="svg_26"/>
  <g id="svg_27"/>
  <g id="svg_28"/>
  <g id="svg_29"/>
  <g id="svg_30"/>
 </g>
</svg>